<?xml version="1.0" standalone="no"?>
<!DOCTYPE svg PUBLIC "-//W3C//DTD SVG 20010904//EN"
 "http://www.w3.org/TR/2001/REC-SVG-20010904/DTD/svg10.dtd">
<svg version="1.0" xmlns="http://www.w3.org/2000/svg"
 width="640.000000pt" height="640.000000pt" viewBox="0 0 640.000000 640.000000"
 preserveAspectRatio="xMidYMid meet">
<metadata>
Created by potrace 1.14, written by Peter Selinger 2001-2017
</metadata>
<g transform="translate(0.000000,640.000000) scale(0.100000,-0.100000)"
fill="#000000" stroke="none">
<path d="M477 6318 c11 -579 18 -1705 10 -1778 -1 -18 -16 -33 -57 -56 -30
-18 -68 -43 -85 -57 -30 -25 -30 -26 -27 -114 2 -48 9 -115 17 -148 14 -57 14
-58 10 -13 -24 247 -22 253 69 298 87 43 206 63 366 64 136 1 231 -16 344 -60
51 -20 60 -10 10 12 -22 9 -61 27 -89 40 -27 13 -79 28 -115 35 -36 6 -75 13
-87 15 -19 4 -23 11 -23 44 0 38 -1 39 -37 42 l-38 4 30 8 c17 4 41 12 54 17
23 9 23 10 6 29 -11 12 -13 20 -7 20 7 0 12 6 12 13 0 8 9 22 20 32 24 22 26
35 5 35 -20 0 -19 9 3 33 14 16 17 39 16 156 -1 75 1 117 3 94 3 -31 9 -43 20
-43 13 0 15 9 9 61 -3 34 -6 88 -6 120 0 46 -3 59 -15 59 -8 0 -15 5 -15 11 0
5 4 8 9 5 25 -16 32 29 34 221 4 409 17 798 27 801 5 2 10 21 10 43 l0 39
-242 0 -243 0 2 -82z m410 -840 c-2 -24 -4 -5 -4 42 0 47 2 66 4 43 2 -24 2
-62 0 -85z m-7 -558 c0 -22 -4 -40 -10 -40 -5 0 -10 18 -10 40 0 22 5 40 10
40 6 0 10 -18 10 -40z m-165 -340 c3 -5 -3 -10 -14 -10 -12 0 -21 5 -21 10 0
6 6 10 14 10 8 0 18 -4 21 -10z"/>
<path d="M3200 5834 c-139 -23 -290 -70 -419 -130 -51 -24 -95 -44 -97 -44
-10 0 -189 -123 -249 -171 -145 -116 -368 -362 -495 -548 -25 -36 -70 -102
-100 -146 -86 -125 -235 -394 -260 -469 -16 -49 -37 -68 -64 -60 -21 7 -21 6
-2 -14 18 -21 18 -23 -8 -94 -35 -96 -82 -242 -96 -296 -13 -52 -33 -62 -61
-31 -14 17 -12 10 7 -20 21 -35 25 -51 20 -80 -47 -263 -60 -449 -46 -656 6
-83 15 -177 21 -209 6 -33 8 -76 4 -95 -11 -59 -75 -240 -116 -329 -22 -45
-39 -86 -39 -91 0 -5 -7 -14 -15 -21 -13 -11 -23 -6 -61 31 -25 24 -59 67 -75
94 -17 28 -50 77 -74 110 -25 33 -55 78 -68 100 -207 348 -363 669 -437 896
-35 109 -70 258 -96 414 -11 61 -20 97 -22 82 -6 -50 33 -261 78 -422 75 -268
69 -177 69 -999 0 -407 6 -878 12 -1046 11 -302 14 -551 17 -1237 2 -346 2
-353 22 -353 19 0 20 7 20 178 0 354 10 1280 15 1388 3 62 8 212 11 335 5 202
18 348 46 509 16 97 20 150 11 150 -20 0 -34 70 -28 137 7 78 22 159 24 126 2
-40 19 -24 30 27 6 28 11 58 11 67 0 32 40 -18 41 -51 0 -17 3 -25 6 -18 6 16
23 16 23 0 0 -7 11 -26 25 -42 15 -17 23 -36 20 -45 -3 -9 -3 -12 1 -9 3 4 36
-41 71 -100 36 -59 78 -122 94 -140 16 -18 29 -37 29 -42 0 -4 23 -34 51 -64
l51 -56 -12 -48 c-7 -26 -21 -63 -30 -82 -29 -59 -40 -132 -30 -195 8 -47 17
-66 52 -105 24 -26 60 -58 81 -71 21 -13 52 -33 69 -44 23 -15 42 -43 69 -105
20 -47 41 -89 46 -95 4 -5 14 -22 20 -37 7 -15 24 -46 39 -70 16 -24 38 -62
50 -84 12 -23 32 -53 44 -67 22 -26 34 -44 64 -102 9 -17 28 -43 44 -57 52
-52 151 -143 165 -153 8 -5 37 -26 65 -45 29 -19 52 -39 52 -44 0 -5 -20 -34
-45 -64 -46 -55 -132 -183 -262 -387 -101 -159 -126 -200 -179 -295 -26 -47
-63 -108 -81 -137 -18 -29 -33 -55 -33 -58 0 -3 104 -5 230 -5 127 0 230 3
230 6 0 4 11 62 25 129 38 189 87 322 206 558 32 65 59 121 59 124 0 3 -9 -2
-20 -12 -11 -10 -20 -25 -20 -32 0 -8 -6 -13 -12 -11 -7 3 -25 45 -40 94 -28
91 -31 94 -117 159 -84 62 -160 132 -195 180 -16 22 -34 45 -40 50 -12 10
-103 146 -144 215 -33 54 -142 276 -142 288 0 20 -52 73 -86 87 -47 19 -140
109 -165 160 l-21 42 26 107 c25 105 49 166 64 166 14 0 32 -24 32 -42 0 -11
-9 -36 -20 -58 -25 -48 -53 -130 -47 -136 2 -3 10 10 17 28 7 18 32 71 55 118
23 47 54 119 70 160 90 244 143 361 146 323 0 -5 14 -64 32 -133 35 -135 53
-159 77 -100 14 34 35 39 49 11 6 -10 13 -103 16 -207 6 -177 12 -234 50 -489
30 -207 121 -484 158 -485 4 0 7 1 7 3 0 1 9 49 20 107 22 114 47 200 59 200
4 0 53 -45 108 -99 171 -168 304 -274 323 -255 5 5 36 90 68 189 55 166 61
180 84 183 37 4 60 -23 53 -62 l-6 -31 20 32 c19 30 22 31 58 22 21 -6 64 -20
95 -31 32 -11 64 -18 72 -15 8 3 22 29 30 58 20 65 31 79 67 79 33 0 34 -1 15
-43 -8 -18 -19 -48 -25 -67 -14 -42 -25 -238 -12 -200 5 14 9 48 10 76 1 54
28 145 56 188 19 29 50 33 82 11 36 -26 124 -67 130 -61 5 5 -29 24 -117 67
-25 12 -67 36 -95 53 -27 18 -79 45 -115 60 -220 97 -391 197 -461 272 -83 89
-131 226 -121 346 4 56 4 56 -31 73 -20 9 -48 27 -62 40 -44 42 -30 111 35
169 39 34 39 27 -26 299 -62 261 -73 325 -80 457 -7 130 12 263 48 333 18 36
18 39 2 33 -11 -4 -36 6 -72 31 -30 21 -83 56 -118 79 -86 55 -94 63 -94 90 0
29 20 74 33 74 18 0 99 -50 189 -117 l88 -65 -5 -41 -5 -42 21 55 c11 30 32
87 46 125 14 39 38 84 52 101 195 236 301 354 316 354 14 0 20 -37 30 -165 9
-112 33 -279 51 -349 8 -32 14 -70 12 -85 -3 -28 -1 -31 -113 94 -40 45 45
-79 98 -144 35 -41 48 -67 57 -115 7 -33 24 -83 36 -111 l23 -50 1 52 c0 28 3
58 6 67 7 18 39 22 49 6 8 -13 45 -13 45 -1 0 6 -4 13 -10 16 -5 3 -10 14 -10
24 0 9 -14 28 -31 40 l-32 23 7 72 c10 100 49 289 61 293 6 1 29 -57 53 -130
47 -148 150 -361 231 -482 68 -101 220 -277 235 -272 6 2 16 21 23 43 38 130
64 239 74 309 14 94 17 397 6 473 -5 33 -4 52 2 52 6 0 75 -42 154 -94 79 -52
160 -102 180 -112 20 -10 37 -25 37 -33 0 -9 -30 -44 -67 -78 -37 -35 -64 -63
-59 -63 4 0 -2 -16 -14 -35 -21 -35 -21 -35 -2 -35 27 0 69 36 122 105 23 30
50 55 60 55 11 0 24 -16 35 -42 51 -120 68 -156 119 -241 30 -50 79 -126 110
-167 31 -41 56 -78 56 -81 0 -3 -35 -9 -77 -12 -165 -11 -331 -101 -405 -216
-49 -78 -37 -95 77 -106 107 -10 239 -33 349 -61 54 -13 101 -22 104 -19 9 8
-89 94 -133 117 -22 12 -81 26 -138 33 -54 7 -102 16 -105 20 -16 15 110 99
267 177 l83 41 64 -64 c51 -52 63 -70 64 -96 0 -30 -16 -159 -41 -318 -23
-150 -36 -320 -26 -356 8 -33 2 -49 -76 -210 -80 -165 -101 -210 -144 -322
-23 -61 -76 -96 -248 -161 -55 -21 -121 -47 -147 -57 -97 -39 -259 -71 -393
-78 -85 -4 -121 -9 -103 -14 27 -7 88 -85 88 -112 0 -28 -52 -21 -72 9 -6 8
-8 8 -8 0 0 -7 21 -35 46 -63 34 -38 45 -57 42 -77 l-3 -26 -24 21 c-51 45
-121 37 -214 -22 -67 -43 -240 -215 -256 -256 -20 -48 -29 -42 -57 34 -6 19
-7 18 -14 -5 -5 -14 -8 -41 -9 -60 0 -27 2 -31 9 -20 9 13 12 12 25 -4 18 -23
17 -24 78 69 25 39 74 96 110 127 65 57 189 132 201 121 13 -14 4 -25 -33 -41
-85 -37 -206 -157 -279 -276 -68 -111 -80 -126 -104 -126 -10 0 -18 -6 -18
-14 0 -7 -14 -30 -30 -51 -48 -60 -57 -104 -35 -174 10 -34 32 -75 51 -97 19
-21 34 -48 34 -61 0 -13 -15 -62 -34 -111 -52 -137 -64 -172 -86 -252 -23 -90
-24 -100 -6 -100 8 0 16 15 19 37 9 56 56 212 78 259 10 23 19 44 19 47 0 7
83 186 101 220 5 10 26 48 46 85 52 98 132 215 212 312 39 46 71 90 71 97 0
55 -82 -21 -196 -182 -34 -49 -67 -94 -71 -100 -4 -5 -17 -28 -28 -50 -11 -22
-30 -53 -42 -70 -11 -16 -28 -46 -36 -67 -20 -47 -54 -59 -79 -28 -10 12 -18
30 -18 39 0 9 -4 21 -9 26 -37 42 -9 112 79 195 32 30 71 79 86 108 20 39 29
50 36 40 6 -9 7 -6 3 10 -3 12 -2 22 2 22 5 0 19 18 32 40 46 83 164 176 205
161 37 -14 106 -22 106 -12 0 5 16 11 35 13 19 2 35 2 35 1 0 -2 -9 -17 -21
-32 -22 -30 -23 -66 -2 -66 7 0 23 15 37 34 14 18 34 40 45 48 19 13 22 11 41
-19 50 -82 67 -212 66 -498 -1 -235 -4 -245 -80 -297 -61 -42 -81 -42 -103 0
-16 28 -18 65 -20 302 -1 149 -2 273 -3 278 0 4 -6 7 -14 7 -15 0 -20 -27 -36
-190 -6 -58 -15 -118 -20 -135 -38 -126 -98 -635 -74 -635 16 0 24 34 24 113
0 38 4 87 9 110 5 23 17 92 26 152 20 132 36 192 46 173 4 -7 12 -47 18 -87
14 -92 28 -122 64 -139 32 -15 69 -2 128 47 48 40 57 78 65 261 4 85 11 161
17 168 6 8 21 11 39 7 23 -5 34 -1 55 19 29 29 20 35 -16 9 -22 -15 -25 -15
-36 0 -16 22 -22 21 -28 -3 -3 -14 -10 -18 -22 -14 -21 8 -18 91 4 86 8 -2 11
3 8 12 -4 9 -18 55 -33 103 -14 49 -35 108 -46 133 -12 25 -24 72 -29 105 -4
33 -11 73 -15 88 -5 22 -1 34 16 53 13 13 27 24 31 24 15 0 201 121 297 192
54 40 122 82 152 95 30 12 78 33 105 46 60 30 65 22 35 -54 -11 -30 -20 -62
-20 -71 0 -10 -6 -37 -13 -60 -8 -24 -24 -81 -36 -128 -13 -47 -42 -128 -66
-180 -24 -52 -53 -118 -63 -147 -17 -45 -78 -134 -107 -155 -15 -11 4 -9 26 2
25 14 25 5 -2 -90 -42 -149 -101 -514 -114 -695 -3 -50 -8 -109 -11 -132 l-5
-43 249 0 250 0 -9 38 c-5 24 -2 87 8 177 21 185 20 193 -20 315 -82 248 -119
612 -87 841 9 65 15 79 49 114 20 22 50 56 65 75 28 35 82 80 123 101 19 10
27 9 44 -7 27 -23 62 -101 79 -172 14 -60 24 -62 58 -11 12 19 28 42 35 53 69
104 260 346 292 368 17 13 104 9 139 -6 40 -17 68 -54 96 -128 11 -30 35 -75
54 -99 36 -48 109 -211 130 -293 8 -28 21 -76 30 -106 49 -174 59 -249 62
-500 l3 -245 45 -33 c65 -48 169 -183 221 -286 36 -72 45 -100 46 -145 1 -53
2 -54 10 -21 5 19 6 50 3 69 -6 35 -61 152 -94 200 -9 14 -32 49 -49 76 -17
28 -59 74 -93 102 l-62 53 -1 212 c-1 150 -7 235 -18 288 -8 41 -18 93 -22
115 -3 22 -17 76 -30 120 -13 44 -33 125 -46 180 -12 55 -28 105 -34 110 -18
16 -55 72 -55 83 0 5 9 12 20 15 11 3 23 13 27 24 4 10 17 32 28 50 42 60 132
259 189 415 10 26 21 50 26 53 4 2 24 -19 43 -48 20 -28 50 -71 66 -94 30 -42
40 -59 84 -138 31 -56 59 -55 69 3 4 24 9 339 11 700 2 411 8 704 16 782 7 69
18 208 24 310 l13 185 17 -85 c24 -116 44 -360 62 -765 8 -187 17 -363 20
-390 7 -56 18 -84 29 -66 8 13 -18 607 -40 910 -23 314 -94 683 -164 846 -5
11 -19 52 -31 90 -27 87 -114 287 -146 337 -12 21 -23 41 -23 44 0 4 -11 22
-25 40 -14 18 -25 35 -25 38 0 5 -83 129 -101 150 -5 6 -31 41 -58 77 -64 86
-209 239 -227 239 -8 0 -14 4 -14 10 0 17 -224 158 -381 238 -221 114 -419
182 -587 203 -88 11 -106 11 -163 -5 -85 -24 -123 -24 -189 1 -42 16 -87 22
-195 26 -77 3 -151 3 -165 1z m-1095 -1329 c60 -41 130 -92 154 -113 l44 -38
-22 -42 c-12 -23 -27 -42 -35 -42 -7 0 -35 16 -62 35 -27 20 -92 66 -144 103
-105 75 -117 97 -80 145 12 15 24 27 28 27 3 0 56 -34 117 -75z m-1461 -1461
c3 -8 2 -12 -4 -9 -6 3 -10 10 -10 16 0 14 7 11 14 -7z m36 -98 c-6 -6 -10
-23 -10 -38 0 -15 -4 -28 -10 -28 -5 0 -10 4 -10 9 0 5 -3 23 -6 40 -5 24 -3
31 10 31 9 0 16 6 16 13 0 8 3 7 10 -3 6 -9 6 -18 0 -24z m2913 -1327 c-6 -6
-20 -16 -31 -23 -11 -6 -51 -33 -89 -60 -37 -27 -89 -60 -114 -74 -59 -30 -95
-67 -107 -112 -6 -19 -11 -26 -11 -16 -1 11 -8 28 -18 38 -13 15 -14 23 -5 44
18 39 14 65 -14 95 -14 15 -24 32 -20 37 3 5 36 13 73 16 80 8 271 45 293 57
24 13 56 11 43 -2z"/>
<path d="M6276 5440 c-61 -19 -93 -75 -121 -212 -27 -131 -17 -467 19 -648 15
-74 36 -162 46 -195 27 -91 49 -193 55 -265 16 -186 76 -496 114 -592 6 -14
10 334 10 950 l1 972 -47 -1 c-27 0 -61 -5 -77 -9z"/>
<path d="M1190 4430 c8 -5 22 -9 30 -9 10 0 8 3 -5 9 -27 12 -43 12 -25 0z"/>
<path d="M1278 4393 c7 -3 16 -2 19 1 4 3 -2 6 -13 5 -11 0 -14 -3 -6 -6z"/>
<path d="M1355 4354 c29 -22 135 -83 135 -78 0 7 -137 94 -147 94 -4 -1 1 -8
12 -16z"/>
<path d="M2420 4018 c0 -9 5 -20 10 -23 13 -8 13 5 0 25 -8 13 -10 13 -10 -2z"/>
<path d="M2450 3463 c-8 -3 -44 -19 -79 -36 l-64 -31 -53 29 c-29 16 -55 27
-58 24 -2 -2 11 -27 30 -56 31 -45 34 -54 22 -72 -14 -23 -61 -43 -82 -35 -27
10 -25 -13 4 -41 24 -23 28 -33 23 -59 -8 -43 -21 -66 -38 -66 -26 0 -26 -20
0 -32 15 -7 36 -30 47 -52 24 -48 68 -109 74 -103 3 3 -3 24 -13 48 -24 59
-24 191 0 235 18 35 94 102 144 128 39 19 87 22 79 4 -25 -61 -37 -125 -34
-190 3 -71 4 -73 30 -76 34 -4 88 -64 88 -97 0 -29 -5 -30 -53 -10 -32 13 -37
13 -51 -1 -19 -19 -19 -17 -2 -79 21 -79 47 -125 74 -132 36 -9 148 4 181 21
66 34 86 114 71 275 -18 185 -51 284 -116 341 -67 58 -161 85 -224 63z"/>
<path d="M690 2716 c0 -2 7 -6 15 -10 8 -3 15 -1 15 4 0 6 -7 10 -15 10 -8 0
-15 -2 -15 -4z"/>
<path d="M640 2690 c0 -5 5 -10 10 -10 6 0 10 5 10 10 0 6 -4 10 -10 10 -5 0
-10 -4 -10 -10z"/>
<path d="M3677 2406 c-38 -14 -62 -30 -85 -56 -29 -33 -62 -118 -73 -187 -14
-86 -25 -96 -125 -115 -39 -7 -59 -14 -46 -16 52 -8 228 45 332 101 30 16 67
36 82 44 36 19 68 72 68 113 0 44 -36 99 -76 116 -18 8 -35 14 -36 14 -2 -1
-20 -7 -41 -14z m69 -40 c26 -19 10 -32 -21 -18 -14 7 -35 12 -46 12 -11 0
-17 5 -14 10 9 15 58 12 81 -4z m-79 -43 c-3 -3 -13 1 -21 10 -8 8 -12 17 -9
20 3 3 12 -1 20 -9 9 -8 13 -18 10 -21z m-27 -28 c0 -24 -24 -45 -36 -32 -5 5
26 56 34 57 1 0 2 -11 2 -25z m-50 -35 c0 -5 -5 -10 -11 -10 -5 0 -7 5 -4 10
3 6 8 10 11 10 2 0 4 -4 4 -10z m170 -20 c0 -5 -5 -10 -11 -10 -5 0 -7 5 -4
10 3 6 8 10 11 10 2 0 4 -4 4 -10z m-170 -10 c0 -5 -4 -10 -10 -10 -5 0 -10 5
-10 10 0 6 5 10 10 10 6 0 10 -4 10 -10z m7 -42 c-3 -8 -6 -5 -6 6 -1 11 2 17
5 13 3 -3 4 -12 1 -19z m119 7 c-19 -15 -46 -20 -46 -10 0 6 40 24 55 24 6 0
1 -6 -9 -14z m-139 -62 c-9 -9 -19 -14 -23 -11 -10 10 6 28 24 28 15 0 15 -1
-1 -17z"/>
<path d="M3050 2053 c19 -8 58 -17 85 -19 l50 -4 -60 13 c-33 8 -71 16 -85 20
-14 4 -10 0 10 -10z"/>
<path d="M2448 1457 c-3 -19 -2 -25 4 -19 6 6 8 18 6 28 -3 14 -5 12 -10 -9z"/>
<path d="M1096 1185 c-14 -13 -26 -31 -26 -39 0 -18 20 -32 29 -20 16 23 65
46 89 41 14 -3 37 3 54 13 29 17 29 17 6 24 -13 3 -46 6 -74 6 -40 0 -57 -5
-78 -25z"/>
<path d="M1458 1193 c12 -2 32 -2 45 0 12 2 2 4 -23 4 -25 0 -35 -2 -22 -4z"/>
<path d="M2973 1112 c-67 -69 -136 -150 -175 -208 -19 -27 -50 -71 -69 -98
-19 -26 -38 -55 -44 -64 -5 -9 -16 -22 -23 -30 -17 -19 -10 -37 14 -37 12 0
35 23 64 67 25 36 53 77 62 90 10 12 31 41 47 64 16 22 49 63 74 90 83 90 127
145 127 160 0 27 -29 14 -77 -34z"/>
<path d="M3206 1062 c-8 -14 14 -479 25 -524 6 -22 16 -38 24 -38 18 0 18 41
1 332 -9 166 -15 211 -28 224 -9 10 -18 12 -22 6z"/>
<path d="M2184 1023 c-44 -40 -100 -114 -108 -143 -6 -23 -6 -23 5 -5 7 11 15
22 19 25 3 3 19 23 35 45 16 22 34 45 39 50 20 19 49 55 45 55 -3 0 -18 -12
-35 -27z"/>
<path d="M3087 1039 c-19 -11 -85 -98 -109 -144 -43 -82 -83 -150 -90 -153 -4
-2 -8 -10 -8 -17 0 -7 -9 -30 -19 -52 -45 -87 -81 -166 -81 -175 0 -5 -11 -33
-24 -61 -46 -98 -88 -202 -107 -267 -10 -36 -28 -86 -40 -112 -23 -50 -19 -76
5 -42 8 10 20 37 26 59 7 22 21 57 32 78 17 35 22 38 49 32 18 -4 29 -3 29 4
0 6 -7 11 -15 11 -42 0 -17 106 68 290 19 41 46 102 61 135 15 33 32 69 38 80
7 11 22 39 35 63 42 78 105 164 114 155 4 -4 2 -30 -5 -58 -8 -28 -27 -122
-42 -210 -25 -138 -32 -164 -56 -191 -28 -31 -42 -72 -16 -46 33 33 36 -11 13
-193 -19 -152 -20 -225 -2 -225 10 0 17 34 25 123 38 380 84 677 122 789 24
69 36 138 24 138 -5 0 -17 -5 -27 -11z"/>
<path d="M6358 308 c-19 -24 -54 -72 -79 -108 -24 -36 -46 -67 -49 -70 -13
-10 -80 -112 -80 -121 0 -5 56 -9 125 -9 l125 0 0 175 c0 96 -2 175 -4 175 -2
0 -19 -19 -38 -42z"/>
</g>
</svg>
